<svg xmlns="http://www.w3.org/2000/svg" width="512" height="512" viewBox="0 0 512 512">
  <defs>
    <linearGradient id="bg" x1="0" y1="0" x2="0" y2="1">
      <stop offset="0" stop-color="#546E7A"/>
      <stop offset="1" stop-color="#263238"/>
    </linearGradient>
  </defs>
  <rect width="512" height="512" rx="112" fill="url(#bg)"/>
  <!-- record LED -->
  <circle cx="256" cy="92" r="22" fill="#E53935"/>
  <!-- Material mic glyph, scaled/centered -->
  <g transform="translate(106,96) scale(12.5)" fill="#FFFFFF">
    <path d="M12,14c1.66,0 3,-1.34 3,-3V5c0,-1.66 -1.34,-3 -3,-3S9,3.34 9,5v6c0,1.66 1.34,3 3,3zM17,11c0,2.76 -2.24,5 -5,5s-5,-2.24 -5,-5H5c0,3.53 2.61,6.43 6,6.92V21h2v-3.08c3.39,-0.49 6,-3.39 6,-6.92h-2z"/>
  </g>
</svg>
